<?xml version="1.0" encoding="UTF-8"?>
<svg version="1.1" xmlns="http://www.w3.org/2000/svg" width="500" height="500">
<path d="M0 0 C0.90045044 -0.00705963 1.80090088 -0.01411926 2.7286377 -0.02139282 C40.56271231 -0.2507174 40.56271231 -0.2507174 57.20703125 3.203125 C58.69759033 3.50911621 58.69759033 3.50911621 60.21826172 3.82128906 C82.220508 8.47437301 102.98300327 15.38050853 123.20703125 25.203125 C123.92810059 25.55068848 124.64916992 25.89825195 125.39208984 26.25634766 C183.08785103 54.41594201 228.273258 107.04791745 249.3125 167.4375 C256.90979679 190.17968485 262.28374061 213.92910166 262.41015625 237.99609375 C262.41721588 238.89654419 262.42427551 239.79699463 262.43154907 240.72473145 C262.66087365 278.55880606 262.66087365 278.55880606 259.20703125 295.203125 C258.90104004 296.69368408 258.90104004 296.69368408 258.58886719 298.21435547 C253.93578324 320.21660175 247.02964772 340.97909702 237.20703125 361.203125 C236.85946777 361.92419434 236.5119043 362.64526367 236.15380859 363.38818359 C207.99421424 421.08394478 155.3622388 466.26935175 94.97265625 487.30859375 C72.2304714 494.90589054 48.48105459 500.27983436 24.4140625 500.40625 C23.06338684 500.41683945 23.06338684 500.41683945 21.6854248 500.42764282 C-16.14864981 500.6569674 -16.14864981 500.6569674 -32.79296875 497.203125 C-34.28352783 496.89713379 -34.28352783 496.89713379 -35.80419922 496.58496094 C-57.8064455 491.93187699 -78.56894077 485.02574147 -98.79296875 475.203125 C-99.51403809 474.85556152 -100.23510742 474.50799805 -100.97802734 474.14990234 C-158.67378853 445.99030799 -203.8591955 393.35833255 -224.8984375 332.96875 C-232.49573429 310.22656515 -237.86967811 286.47714834 -237.99609375 262.41015625 C-238.00315338 261.50970581 -238.01021301 260.60925537 -238.01748657 259.68151855 C-238.24681115 221.84744394 -238.24681115 221.84744394 -234.79296875 205.203125 C-234.48697754 203.71256592 -234.48697754 203.71256592 -234.17480469 202.19189453 C-229.52172074 180.18964825 -222.61558522 159.42715298 -212.79296875 139.203125 C-212.44540527 138.48205566 -212.0978418 137.76098633 -211.73974609 137.01806641 C-183.58015174 79.32230522 -130.9481763 34.13689825 -70.55859375 13.09765625 C-47.8164089 5.50035946 -24.06699209 0.12641564 0 0 Z " fill="#343337" transform="translate(237.79296875,-0.203125)"/>
<path d="M0 0 C0.90045044 -0.00705963 1.80090088 -0.01411926 2.7286377 -0.02139282 C40.56271231 -0.2507174 40.56271231 -0.2507174 57.20703125 3.203125 C58.69759033 3.50911621 58.69759033 3.50911621 60.21826172 3.82128906 C82.220508 8.47437301 102.98300327 15.38050853 123.20703125 25.203125 C123.92810059 25.55068848 124.64916992 25.89825195 125.39208984 26.25634766 C183.08785103 54.41594201 228.273258 107.04791745 249.3125 167.4375 C256.90979679 190.17968485 262.28374061 213.92910166 262.41015625 237.99609375 C262.41721588 238.89654419 262.42427551 239.79699463 262.43154907 240.72473145 C262.66087365 278.55880606 262.66087365 278.55880606 259.20703125 295.203125 C258.90104004 296.69368408 258.90104004 296.69368408 258.58886719 298.21435547 C253.93578324 320.21660175 247.02964772 340.97909702 237.20703125 361.203125 C236.85946777 361.92419434 236.5119043 362.64526367 236.15380859 363.38818359 C207.99421424 421.08394478 155.3622388 466.26935175 94.97265625 487.30859375 C72.2304714 494.90589054 48.48105459 500.27983436 24.4140625 500.40625 C23.06338684 500.41683945 23.06338684 500.41683945 21.6854248 500.42764282 C-16.14864981 500.6569674 -16.14864981 500.6569674 -32.79296875 497.203125 C-34.28352783 496.89713379 -34.28352783 496.89713379 -35.80419922 496.58496094 C-57.8064455 491.93187699 -78.56894077 485.02574147 -98.79296875 475.203125 C-99.51403809 474.85556152 -100.23510742 474.50799805 -100.97802734 474.14990234 C-158.67378853 445.99030799 -203.8591955 393.35833255 -224.8984375 332.96875 C-232.49573429 310.22656515 -237.86967811 286.47714834 -237.99609375 262.41015625 C-238.00315338 261.50970581 -238.01021301 260.60925537 -238.01748657 259.68151855 C-238.24681115 221.84744394 -238.24681115 221.84744394 -234.79296875 205.203125 C-234.48697754 203.71256592 -234.48697754 203.71256592 -234.17480469 202.19189453 C-229.52172074 180.18964825 -222.61558522 159.42715298 -212.79296875 139.203125 C-212.44540527 138.48205566 -212.0978418 137.76098633 -211.73974609 137.01806641 C-183.58015174 79.32230522 -130.9481763 34.13689825 -70.55859375 13.09765625 C-47.8164089 5.50035946 -24.06699209 0.12641564 0 0 Z M-84.79296875 66.203125 C-94.18521351 82.54402692 -94.18521351 82.54402692 -103.23046875 99.078125 C-107.57042018 107.15643081 -112.00632763 115.17115484 -116.54296875 123.140625 C-120.60564691 130.27891165 -124.55500205 137.4552505 -128.35400391 144.73681641 C-131.41552918 150.56979877 -134.65484926 156.29345613 -137.91796875 162.015625 C-142.8508007 170.67134899 -147.61583773 179.40729498 -152.29296875 188.203125 C-156.9701055 196.99896579 -161.73553554 205.73466688 -166.66796875 214.390625 C-170.44113332 221.01373908 -174.16683301 227.65204381 -177.73046875 234.390625 C-178.05966309 235.01283936 -178.38885742 235.63505371 -178.72802734 236.27612305 C-179.38109671 237.52176798 -180.01899579 238.77546792 -180.64257812 240.03613281 C-181.79296875 242.203125 -181.79296875 242.203125 -183.56835938 244.94042969 C-187.11000123 250.66100077 -187.11000123 250.66100077 -187.24682617 257.15209961 C-185.85280819 260.30612137 -184.23441906 263.14708802 -182.41796875 266.078125 C-181.80034668 267.16182373 -181.18272461 268.24552246 -180.54638672 269.36206055 C-179.27241762 271.59354234 -177.97949258 273.81430738 -176.66796875 276.02392578 C-174.46343471 279.761874 -172.39184546 283.55933941 -170.3359375 287.38037109 C-168.88845137 290.0704822 -167.42078371 292.74877526 -165.94921875 295.42578125 C-162.39562356 301.91176891 -158.90521248 308.43129628 -155.41796875 314.953125 C-154.1407001 317.34118601 -152.86334304 319.72919972 -151.5859375 322.1171875 C-151.26960861 322.70859024 -150.95327972 323.29999298 -150.62736511 323.90931702 C-146.19343789 332.19629246 -141.73268827 340.46882198 -137.2734375 348.7421875 C-134.89698489 353.15147687 -132.5250514 357.56315812 -130.15625 361.9765625 C-124.71229204 372.11429501 -119.25109079 382.23770964 -113.63110352 392.27905273 C-109.230473 400.16490342 -104.96852309 408.12544462 -100.70117188 416.08398438 C-100.13720703 417.13521484 -99.57324219 418.18644531 -98.9921875 419.26953125 C-98.24714966 420.6608728 -98.24714966 420.6608728 -97.48706055 422.08032227 C-95.28576647 426.13807591 -93.04084735 430.1710371 -90.79296875 434.203125 C-68.71359518 434.53723368 -46.63405788 434.8000017 -24.55305481 434.99971008 C-12.43091545 435.11068937 -0.30950335 435.2453275 11.81201172 435.41162109 C23.96114284 435.57813203 36.11013106 435.70450779 48.26010513 435.79042625 C54.93306299 435.83873246 61.60492369 435.90612135 68.27716064 436.01464844 C74.61972957 436.11713589 80.96097305 436.17203647 87.3043232 436.19133949 C89.6593271 436.20687548 92.01428727 436.23974401 94.36878777 436.2908535 C97.60567391 436.35841728 100.83701876 436.36396944 104.07446289 436.35424805 C105.01977938 436.38863228 105.96509586 436.42301651 106.9390583 436.45844269 C109.69995423 436.41051126 111.65533907 436.27048248 114.20703125 435.203125 C116.84923904 432.14396828 118.52666682 428.85911816 120.20703125 425.203125 C120.77325195 424.19572266 121.33947266 423.18832031 121.92285156 422.15039062 C122.37241211 421.31185547 122.82197266 420.47332031 123.28515625 419.609375 C123.80053955 418.65200439 124.31592285 417.69463379 124.84692383 416.70825195 C125.37825928 415.71656006 125.90959473 414.72486816 126.45703125 413.703125 C130.27358269 406.61925557 134.09921934 399.54267783 138.01953125 392.515625 C142.36996368 384.71254024 146.70143533 376.89914218 151.01953125 369.078125 C151.53433548 368.14577026 151.53433548 368.14577026 152.05953979 367.19458008 C157.31858069 357.66585795 162.52433314 348.10944844 167.69238281 338.53100586 C170.83807091 332.70716565 174.03186064 326.91373469 177.26953125 321.140625 C181.00141953 314.47599875 184.56643696 307.73412961 188.08203125 300.953125 C192.1756634 293.05831026 196.32943018 285.20108868 200.58203125 277.390625 C201.05753418 276.51438477 201.53303711 275.63814453 202.02294922 274.73535156 C204.88884949 269.49307126 207.91358589 264.42124589 211.18994141 259.4230957 C212.38998976 257.29949836 212.38998976 257.29949836 211.9987793 255.17797852 C211.14277421 253.04284897 210.19875574 251.02746448 209.125 248.9921875 C208.69388916 248.17121582 208.26277832 247.35024414 207.81860352 246.50439453 C207.34865967 245.62122559 206.87871582 244.73805664 206.39453125 243.828125 C205.65964478 242.4356958 205.65964478 242.4356958 204.90991211 241.01513672 C200.92921624 233.49836023 196.85284237 226.03500897 192.76049805 218.57861328 C189.15769207 211.99635223 185.65983063 205.36514896 182.20703125 198.703125 C177.87584594 190.35032532 173.43811228 182.06491716 168.91357422 173.81542969 C164.84150112 166.38517577 160.82746775 158.92482637 156.83203125 151.453125 C155.55474273 149.06507462 154.2773956 146.6770556 153 144.2890625 C152.68366608 143.69764969 152.36733215 143.10623688 152.04141235 142.49690247 C147.60748663 134.20993911 143.14674539 125.93741802 138.6875 117.6640625 C136.31104739 113.25477313 133.9391139 108.84309188 131.5703125 104.4296875 C130.96517822 103.30320801 130.36004395 102.17672852 129.73657227 101.01611328 C128.60715213 98.91346117 127.47862745 96.81032764 126.35131836 94.70654297 C122.94752407 88.3733943 119.48112173 82.07768888 115.98535156 75.79492188 C115.29392563 74.55134918 115.29392563 74.55134918 114.58853149 73.28265381 C113.46165096 71.25598481 112.33447781 69.22947916 111.20703125 67.203125 C94.85294444 67.02836298 78.49877767 66.86225638 62.14453125 66.703125 C60.9243845 66.69124775 59.70423775 66.6793705 58.44711685 66.66713333 C22.9291507 66.32373502 -12.58578388 66.10827924 -48.10546875 66.140625 C-49.05249287 66.14148102 -49.99951698 66.14233704 -50.9752388 66.14321899 C-62.24783744 66.15420142 -73.52040337 66.17360252 -84.79296875 66.203125 Z " fill="#FEFEFE" transform="translate(237.79296875,-0.203125)"/>
<path d="M0 0 C2.80509321 2.48148903 4.33273699 5.19071955 6.07421875 8.48828125 C6.66009766 9.58849609 7.24597656 10.68871094 7.84960938 11.82226562 C8.45611328 12.97404297 9.06261719 14.12582031 9.6875 15.3125 C11.45260846 18.64702432 13.22040551 21.9760118 15.04509735 25.27837181 C16.37518193 27.72981335 17.44594546 30.08371542 18.51514435 32.68203163 C20.17116416 36.51812069 21.9123382 40.1132852 25 43 C30.67619013 45.05559028 36.09122615 44.83714771 42.06445312 44.68115234 C43.79963207 44.6870713 45.53479924 44.69915096 47.26989746 44.71690369 C51.96518849 44.74757588 56.65596408 44.69237661 61.35067177 44.62144423 C66.26208504 44.56193781 71.17317038 44.58180923 76.08483887 44.59317017 C85.37850738 44.60265195 94.67028131 44.54100961 103.96348906 44.45364916 C114.54629081 44.35764088 125.12875224 44.34116618 135.71193027 44.3312881 C157.47539989 44.30919705 179.23736805 44.18749969 201 44 C199.71891432 47.24440397 198.36757321 50.35796895 196.75 53.44921875 C196.31179932 54.28767334 195.87359863 55.12612793 195.42211914 55.98999023 C194.95281982 56.88016846 194.48352051 57.77034668 194 58.6875 C193.50943115 59.62086182 193.0188623 60.55422363 192.51342773 61.51586914 C189.04539551 68.08643704 185.49068417 74.60342777 181.859375 81.08496094 C177.81849871 88.29760441 173.87044991 95.55983515 169.93383789 102.82983398 C169.45035889 103.72001221 168.96687988 104.61019043 168.46875 105.52734375 C168.04013672 106.31874756 167.61152344 107.11015137 167.16992188 107.92553711 C166.19021526 109.66271723 165.10629247 111.3405613 164 113 C161.0677166 113.36914349 161.0677166 113.36914349 157.22970581 113.36076355 C156.17358603 113.36460846 156.17358603 113.36460846 155.09613049 113.36853105 C152.72515322 113.37349205 150.3548058 113.35693863 147.98388672 113.34057617 C146.28903214 113.3397304 144.59417645 113.34020407 142.89932251 113.34190369 C138.28792219 113.342767 133.67675436 113.325087 129.06540823 113.30418181 C124.25008913 113.2854709 119.43476513 113.28366899 114.61941528 113.28010559 C105.49627712 113.27076866 96.37324636 113.24613265 87.25015557 113.21605712 C76.86579952 113.1825643 66.48143843 113.16604 56.09704185 113.15097082 C34.7313012 113.11958449 13.36565736 113.06679205 -8 113 C-8.50337891 112.04335449 -9.00675781 111.08670898 -9.52539062 110.10107422 C-11.43145157 106.48030432 -13.34077174 102.86126096 -15.25097656 99.24267578 C-16.07019681 97.6897442 -16.88858522 96.13637344 -17.70605469 94.58251953 C-18.89548388 92.32201958 -20.087993 90.06316885 -21.28125 87.8046875 C-21.67248047 87.0606366 -22.06371094 86.31658569 -22.46679688 85.54998779 C-24.36489215 81.96684276 -26.30973131 78.43635107 -28.4140625 74.96972656 C-28.98102844 74.02651047 -28.98102844 74.02651047 -29.55944824 73.0642395 C-30.5857228 71.37397045 -31.63294325 69.69646898 -32.68164062 68.02001953 C-34.24155838 64.44665239 -34.03900719 62.7061811 -33 59 C-31.99121094 56.68017578 -31.99121094 56.68017578 -30.734375 54.4453125 C-30.26281982 53.59501465 -29.79126465 52.7447168 -29.30541992 51.86865234 C-28.79213135 50.96324707 -28.27884277 50.0578418 -27.75 49.125 C-26.6568945 47.16182434 -25.56447126 45.19826866 -24.47265625 43.234375 C-23.90305176 42.21537109 -23.33344727 41.19636719 -22.74658203 40.14648438 C-19.84341659 34.91640383 -17.02163016 29.64269554 -14.1875 24.375 C-2.21758497 2.21758497 -2.21758497 2.21758497 0 0 Z " fill="#FDAC63" transform="translate(172,291)"/>
<path d="M0 0 C17.82 0 35.64 0 54 0 C61.50654288 13.28080664 68.97632042 26.5041019 76.0625 40 C77.14552696 42.05655895 78.22955293 44.11258263 79.31480408 46.16796875 C80.2756581 47.98857908 81.23376594 49.81063803 82.19165039 51.6328125 C83.49519501 54.0600418 84.83349174 56.43172816 86.22827148 58.8046875 C88 62 88 62 88 64 C72.16 64.33 56.32 64.66 40 65 C37.9375 68.83625 35.875 72.6725 33.75 76.625 C28.68557617 86.03652057 23.59437831 95.43278498 18.46948242 104.81152344 C14.81991089 111.49184971 11.18668413 118.18086779 7.5625 124.875 C7.02302734 125.87144531 6.48355469 126.86789063 5.92773438 127.89453125 C4.28490672 130.92955254 2.64239186 133.96474287 1 137 C-5.8061028 149.57816269 -12.62029937 162.15159815 -19.47631836 174.70263672 C-23.21046279 181.54212047 -26.91975165 188.39482868 -30.625 195.25 C-36.00942407 205.20832433 -41.47359653 215.11983849 -47 225 C-50.8007486 223.7330838 -50.95598567 222.71316155 -52.71484375 219.20703125 C-53.23006592 218.19519775 -53.74528809 217.18336426 -54.27612305 216.14086914 C-54.82437744 215.04250732 -55.37263184 213.94414551 -55.9375 212.8125 C-57.10753243 210.51468585 -58.27944455 208.21782796 -59.453125 205.921875 C-60.04544922 204.75978516 -60.63777344 203.59769531 -61.24804688 202.40039062 C-63.81812377 197.41209198 -66.49055824 192.48307333 -69.1875 187.5625 C-69.91670654 186.22312378 -69.91670654 186.22312378 -70.66064453 184.85668945 C-73.05149005 180.48175474 -75.48714418 176.14140118 -78.0078125 171.83984375 C-78.48065674 171.02249756 -78.95350098 170.20515137 -79.44067383 169.36303711 C-80.32722421 167.83591108 -81.2272577 166.31649818 -82.14331055 164.80688477 C-82.53558838 164.12811279 -82.92786621 163.44934082 -83.33203125 162.75 C-83.67983643 162.16734375 -84.0276416 161.5846875 -84.38598633 160.984375 C-85.56903434 157.16098963 -84.37571417 153.85166495 -82.80761719 150.29711914 C-82.30907227 149.38567139 -81.81052734 148.47422363 -81.296875 147.53515625 C-80.73556885 146.5002002 -80.1742627 145.46524414 -79.59594727 144.39892578 C-78.98678467 143.29790527 -78.37762207 142.19688477 -77.75 141.0625 C-77.11956787 139.90733887 -76.48913574 138.75217773 -75.83959961 137.56201172 C-71.30505165 129.26714337 -66.65048132 121.04031322 -61.96777344 112.82836914 C-57.34741567 104.69539761 -52.93413871 96.45683295 -48.54226685 88.19927979 C-44.30390554 80.23556002 -39.9735245 72.33435194 -35.5 64.5 C-30.29149891 55.37687033 -25.29067289 46.15309209 -20.35092163 36.88296509 C-13.74427414 24.48504145 -6.96977167 12.19710043 0 0 Z " fill="#FA8250" transform="translate(169,97)"/>
<path d="M0 0 C24.75 0 49.5 0 75 0 C80.61 10.56 86.22 21.12 92 32 C96.4869759 40.24219418 96.4869759 40.24219418 100.98828125 48.4765625 C104.46685011 54.83943021 107.89139674 61.23110391 111.3125 67.625 C111.62704132 68.21283264 111.94158264 68.80066528 112.26565552 69.40631104 C113.86840603 72.40209204 115.47051048 75.39821795 117.07226562 78.39453125 C124.5073459 92.3021732 131.94578949 106.20821689 139.42480469 120.09228516 C140.58880639 122.2600368 141.74585719 124.43153694 142.89550781 126.60693359 C145.69196817 131.87109655 148.58321761 136.99650147 151.7890625 142.0234375 C160.28883588 155.6116428 160.28883588 155.6116428 159.53515625 161.84375 C158.04431561 164.90260421 156.39297591 167.51356746 154.31445312 170.20263672 C151.88697136 173.52193849 150.06830603 177.19672115 148.125 180.8125 C147.35865043 182.17423658 146.59035518 183.53487966 145.8203125 184.89453125 C141.77997874 192.20854264 137.90956686 199.6152626 134 207 C110.9 207 87.8 207 64 207 C65.43340041 202.69979876 66.60260583 199.63990896 68.79296875 195.83984375 C69.33800049 194.88706543 69.88303223 193.93428711 70.44458008 192.95263672 C71.01974365 191.9576416 71.59490723 190.96264648 72.1875 189.9375 C73.36263405 187.87667538 74.53711752 185.81547963 75.7109375 183.75390625 C77.23735834 181.08245234 78.76432377 178.41132172 80.29394531 175.74169922 C81.31062483 173.95874294 82.31242197 172.16732091 83.3125 170.375 C84.11107422 168.96347656 84.11107422 168.96347656 84.92578125 167.5234375 C86.13185482 164.69026104 86.23609373 163.05357367 86 160 C85.13803278 157.73981734 85.13803278 157.73981734 83.83203125 155.54296875 C83.35749512 154.68993164 82.88295898 153.83689453 82.39404297 152.95800781 C81.87213379 152.04374023 81.35022461 151.12947266 80.8125 150.1875 C79.70636544 148.20740304 78.60092082 146.22692054 77.49609375 144.24609375 C76.91972168 143.21983887 76.34334961 142.19358398 75.74951172 141.13623047 C72.90459238 136.03633739 70.14363517 130.8915742 67.375 125.75 C63.53308966 118.63545676 59.64413997 111.55130041 55.6875 104.5 C52.71248652 99.18852396 49.87085265 93.8395104 47.1875 88.375 C41.79910643 77.40383638 35.86170629 66.72309778 30 56 C28.02048153 52.37519205 26.04141435 48.7501378 24.0625 45.125 C23.58264648 44.24618164 23.10279297 43.36736328 22.60839844 42.46191406 C18.55228904 35.02705215 14.5205731 27.57912471 10.5 20.125 C9.6184021 18.49328857 9.6184021 18.49328857 8.71899414 16.82861328 C7.88356079 15.27762939 7.88356079 15.27762939 7.03125 13.6953125 C6.29745117 12.3343042 6.29745117 12.3343042 5.54882812 10.94580078 C3.6451607 7.32511175 1.82938999 3.65877998 0 0 Z " fill="#ACD3D2" transform="translate(257,97)"/>
<path d="M0 0 C2.00021068 0.00157284 4.00088481 0.05750682 5.99853516 0.15869141 C7.05545563 0.17284088 8.1123761 0.18699036 9.20132446 0.2015686 C12.56633831 0.25740797 15.92460945 0.38281334 19.28759766 0.51025391 C21.57265749 0.56042876 23.85782208 0.60605366 26.14306641 0.64697266 C31.73519784 0.75703053 37.32341628 0.92418427 42.91259766 1.13525391 C48.08184192 10.27812019 53.19814674 19.44158583 58.16259766 28.69775391 C63.24934278 38.14141012 68.46511897 47.50496551 73.77490234 56.82495117 C74.28827148 57.72656982 74.80164063 58.62818848 75.33056641 59.55712891 C76.00768677 60.74193848 76.00768677 60.74193848 76.69848633 61.95068359 C77.09914307 62.6715918 77.4997998 63.3925 77.91259766 64.13525391 C78.31647705 64.78655273 78.72035645 65.43785156 79.13647461 66.10888672 C80.19125753 68.86280248 79.7713635 70.33443373 78.91259766 73.13525391 C78.10054117 74.89101949 77.21912866 76.61563005 76.28759766 78.31103516 C75.74973633 79.2970874 75.211875 80.28313965 74.65771484 81.29907227 C74.08182617 82.33813721 73.5059375 83.37720215 72.91259766 84.44775391 C72.32897461 85.51195557 71.74535156 86.57615723 71.14404297 87.67260742 C69.40823633 90.83132749 67.66236519 93.98424978 65.91259766 97.13525391 C65.4246875 98.01600586 64.93677734 98.89675781 64.43408203 99.80419922 C57.19438305 112.85346851 57.19438305 112.85346851 55.91259766 114.13525391 C53.6120593 114.22968726 51.30857592 114.25267519 49.00610352 114.2487793 C48.28419327 114.24892532 47.56228302 114.24907135 46.8184967 114.2492218 C44.42144818 114.24852259 42.02447643 114.24072986 39.62744141 114.23291016 C37.96977277 114.231046 36.31210359 114.22962209 34.6544342 114.22862244 C30.28305552 114.22479703 25.91170985 114.21496656 21.54034424 114.20391846 C17.08305305 114.19370482 12.62575654 114.18912492 8.16845703 114.18408203 C-0.58351128 114.17334431 -9.33545271 114.15626762 -18.08740234 114.13525391 C-18.48008301 113.40164139 -18.87276367 112.66802887 -19.27734375 111.91218567 C-20.76318347 109.1384481 -22.2506901 106.3656124 -23.73925781 103.59333801 C-24.68858738 101.82416675 -25.63606574 100.05400254 -26.58349609 98.28381348 C-30.68774618 90.64369795 -34.86732483 83.05790204 -39.41210938 75.66906738 C-40.58740234 73.64697266 -40.58740234 73.64697266 -42.08740234 70.13525391 C-40.84707042 65.98907693 -38.63217321 62.22634527 -36.59521484 58.42041016 C-36.25302414 57.77636734 -35.91083344 57.13232452 -35.55827332 56.46876526 C-34.44573463 54.37694923 -33.32928738 52.28725209 -32.21240234 50.19775391 C-31.44174728 48.75231376 -30.67115854 47.30683826 -29.90063477 45.86132812 C-25.42837501 37.47925291 -20.93641089 29.10775503 -16.39990234 20.76025391 C-15.94437988 19.91986572 -15.48885742 19.07947754 -15.01953125 18.21362305 C-14.18293237 16.68212984 -13.33323434 15.15766187 -12.46601868 13.64329529 C-11.05391442 11.15192922 -11.05391442 11.15192922 -9.90943909 8.52661133 C-7.44418189 3.52583981 -5.80944052 0.55900632 0 0 Z " fill="#FDFDFD" transform="translate(231.08740234375,189.86474609375)"/>
</svg>
